<svg xmlns="http://www.w3.org/2000/svg" width="440" height="240" viewBox="0 0 440 240" role="img" aria-label="Lenguajes mas usados por DaosPath">
  <defs>
    <linearGradient id="card-bg" x1="0" y1="0" x2="1" y2="1">
      <stop offset="0%" stop-color="#171b2e"/>
      <stop offset="100%" stop-color="#111827"/>
    </linearGradient>
    <filter id="soft-shadow" x="-10%" y="-10%" width="120%" height="120%">
      <feDropShadow dx="0" dy="8" stdDeviation="10" flood-color="#000000" flood-opacity="0.22"/>
    </filter>
  </defs>
  <rect x="1" y="1" width="438" height="238" rx="14" fill="url(#card-bg)" filter="url(#soft-shadow)"/>
  <rect x="1.5" y="1.5" width="437" height="237" rx="13.5" fill="none" stroke="#36405f"/>
  <circle cx="406" cy="30" r="44" fill="#8fb3ff" opacity="0.06"/>
  <circle cx="362" cy="232" r="52" fill="#9ece6a" opacity="0.045"/>
  <text x="26" y="42" fill="#8fb3ff" font-family="Segoe UI, Ubuntu, sans-serif" font-size="21" font-weight="800" text-anchor="start">Lenguajes mas usados</text>
  <text x="224" y="62" fill="#8892b8" font-family="Segoe UI, Ubuntu, sans-serif" font-size="12" font-weight="400" text-anchor="start">Distribucion por bytes</text>
  <circle cx="116" cy="128" r="58" fill="none" stroke="#20263a" stroke-width="28"/>
  <path d="M 153.99 84.18 A 58 58 0 0 0 58.00 128.00" fill="none" stroke="#8fb3ff" stroke-width="28" stroke-linecap="round"/>
  <path d="M 163.39 161.44 A 58 58 0 0 0 156.23 86.22" fill="none" stroke="#9ece6a" stroke-width="28" stroke-linecap="round"/>
  <path d="M 109.09 185.59 A 58 58 0 0 0 161.58 163.87" fill="none" stroke="#f7768e" stroke-width="28" stroke-linecap="round"/>
  <path d="M 82.36 175.25 A 58 58 0 0 0 106.09 185.15" fill="none" stroke="#ffb86c" stroke-width="28" stroke-linecap="round"/>
  <path d="M 64.70 155.05 A 58 58 0 0 0 79.93 173.42" fill="none" stroke="#bb9af7" stroke-width="28" stroke-linecap="round"/>
  <path d="M 58.08 131.04 A 58 58 0 0 0 63.35 152.33" fill="none" stroke="#7dcfff" stroke-width="28" stroke-linecap="round"/>
  <circle cx="116" cy="128" r="35" fill="#111827"/>
  <text x="116" y="124" fill="#8892b8" font-family="Segoe UI, Ubuntu, sans-serif" font-size="13" font-weight="700" text-anchor="middle">Top</text>
  <text x="116" y="145" fill="#d8def8" font-family="Segoe UI, Ubuntu, sans-serif" font-size="18" font-weight="800" text-anchor="middle">stack</text>
  <circle cx="224" cy="82" r="5" fill="#8fb3ff"/>
  <text x="238" y="86" fill="#d8def8" font-family="Segoe UI, Ubuntu, sans-serif" font-size="13" font-weight="700" text-anchor="start">TypeScript</text>
  <text x="434" y="86" fill="#8892b8" font-family="Segoe UI, Ubuntu, sans-serif" font-size="12" font-weight="400" text-anchor="end">37.2%</text>
  <circle cx="224" cy="104" r="5" fill="#9ece6a"/>
  <text x="238" y="108" fill="#d8def8" font-family="Segoe UI, Ubuntu, sans-serif" font-size="13" font-weight="700" text-anchor="start">Java</text>
  <text x="434" y="108" fill="#8892b8" font-family="Segoe UI, Ubuntu, sans-serif" font-size="12" font-weight="400" text-anchor="end">23.4%</text>
  <circle cx="224" cy="126" r="5" fill="#f7768e"/>
  <text x="238" y="130" fill="#d8def8" font-family="Segoe UI, Ubuntu, sans-serif" font-size="13" font-weight="700" text-anchor="start">Python</text>
  <text x="434" y="130" fill="#8892b8" font-family="Segoe UI, Ubuntu, sans-serif" font-size="12" font-weight="400" text-anchor="end">17.1%</text>
  <circle cx="224" cy="148" r="5" fill="#ffb86c"/>
  <text x="238" y="152" fill="#d8def8" font-family="Segoe UI, Ubuntu, sans-serif" font-size="13" font-weight="700" text-anchor="start">CSS</text>
  <text x="434" y="152" fill="#8892b8" font-family="Segoe UI, Ubuntu, sans-serif" font-size="12" font-weight="400" text-anchor="end">7.9%</text>
  <circle cx="224" cy="170" r="5" fill="#bb9af7"/>
  <text x="238" y="174" fill="#d8def8" font-family="Segoe UI, Ubuntu, sans-serif" font-size="13" font-weight="700" text-anchor="start">Rust</text>
  <text x="434" y="174" fill="#8892b8" font-family="Segoe UI, Ubuntu, sans-serif" font-size="12" font-weight="400" text-anchor="end">7.4%</text>
  <circle cx="224" cy="192" r="5" fill="#7dcfff"/>
  <text x="238" y="196" fill="#d8def8" font-family="Segoe UI, Ubuntu, sans-serif" font-size="13" font-weight="700" text-anchor="start">TeX</text>
  <text x="434" y="196" fill="#8892b8" font-family="Segoe UI, Ubuntu, sans-serif" font-size="12" font-weight="400" text-anchor="end">6.9%</text>
</svg>
