<svg xmlns="http://www.w3.org/2000/svg" width="560" height="170" viewBox="0 0 560 170" role="img" aria-label="Repositorio qhapaqxian-db">
  <defs>
    <linearGradient id="card-bg" x1="0" y1="0" x2="1" y2="1">
      <stop offset="0%" stop-color="#171b2e"/>
      <stop offset="100%" stop-color="#111827"/>
    </linearGradient>
    <filter id="soft-shadow" x="-10%" y="-10%" width="120%" height="120%">
      <feDropShadow dx="0" dy="8" stdDeviation="10" flood-color="#000000" flood-opacity="0.22"/>
    </filter>
  </defs>
  <rect x="1" y="1" width="558" height="168" rx="14" fill="url(#card-bg)" filter="url(#soft-shadow)"/>
  <rect x="1.5" y="1.5" width="557" height="167" rx="13.5" fill="none" stroke="#36405f"/>
  <circle cx="526" cy="30" r="44" fill="#8fb3ff" opacity="0.06"/>
  <circle cx="482" cy="162" r="52" fill="#9ece6a" opacity="0.045"/>
  <rect x="24" y="24" width="122" height="28" rx="14" fill="#8fb3ff" opacity="0.13"/>
  <text x="85" y="43" fill="#8fb3ff" font-family="Segoe UI, Ubuntu, sans-serif" font-size="12" font-weight="850" text-anchor="middle">Agent-native DB</text>
  <text x="28" y="82" fill="#d8def8" font-family="Segoe UI, Ubuntu, sans-serif" font-size="22" font-weight="900" text-anchor="start">DaosPath / qhapaqxian-db</text>
  <text x="28" y="108" fill="#8892b8" font-family="Segoe UI, Ubuntu, sans-serif" font-size="13" font-weight="500" text-anchor="start">QhapaqXian DB: agent-native PostgreSQL fork bootstrap</text>
  <rect x="28" y="128" width="82" height="28" rx="14" fill="#ffb86c" opacity="0.14"/>
  <text x="44" y="147" fill="#ffb86c" font-family="Segoe UI, Ubuntu, sans-serif" font-size="12" font-weight="800" text-anchor="start">Stars 0</text>
  <rect x="122" y="128" width="82" height="28" rx="14" fill="#f7768e" opacity="0.14"/>
  <text x="138" y="147" fill="#f7768e" font-family="Segoe UI, Ubuntu, sans-serif" font-size="12" font-weight="800" text-anchor="start">Forks 0</text>
  <rect x="216" y="128" width="120" height="28" rx="14" fill="#9ece6a" opacity="0.14"/>
  <text x="234" y="147" fill="#9ece6a" font-family="Segoe UI, Ubuntu, sans-serif" font-size="12" font-weight="800" text-anchor="start">C</text>
  <rect x="348" y="128" width="112" height="28" rx="14" fill="#7dcfff" opacity="0.12"/>
  <text x="366" y="147" fill="#7dcfff" font-family="Segoe UI, Ubuntu, sans-serif" font-size="12" font-weight="800" text-anchor="start">Public</text>
  <text x="438" y="48" fill="#8892b8" font-family="Segoe UI, Ubuntu, sans-serif" font-size="11" font-weight="400" text-anchor="start">13 jun 2026</text>
</svg>
