<svg xmlns="http://www.w3.org/2000/svg" width="560" height="230" viewBox="0 0 560 230" role="img" aria-label="Estadisticas de GitHub de DaosPath">
  <defs>
    <linearGradient id="card-bg" x1="0" y1="0" x2="1" y2="1">
      <stop offset="0%" stop-color="#171b2e"/>
      <stop offset="100%" stop-color="#111827"/>
    </linearGradient>
    <filter id="soft-shadow" x="-10%" y="-10%" width="120%" height="120%">
      <feDropShadow dx="0" dy="8" stdDeviation="10" flood-color="#000000" flood-opacity="0.22"/>
    </filter>
  </defs>
  <rect x="1" y="1" width="558" height="228" rx="14" fill="url(#card-bg)" filter="url(#soft-shadow)"/>
  <rect x="1.5" y="1.5" width="557" height="227" rx="13.5" fill="none" stroke="#36405f"/>
  <circle cx="526" cy="30" r="44" fill="#8fb3ff" opacity="0.06"/>
  <circle cx="482" cy="222" r="52" fill="#9ece6a" opacity="0.045"/>
  <text x="28" y="43" fill="#8fb3ff" font-family="Segoe UI, Ubuntu, sans-serif" font-size="24" font-weight="850" text-anchor="start">GitHub de DaosPath</text>
  <text x="28" y="67" fill="#8892b8" font-family="Segoe UI, Ubuntu, sans-serif" font-size="12" font-weight="400" text-anchor="start">Pulso publico del perfil</text>
  <rect x="392" y="25" width="128" height="32" rx="16" fill="#8fb3ff" opacity="0.12"/>
  <text x="456" y="46" fill="#8fb3ff" font-family="Segoe UI, Ubuntu, sans-serif" font-size="12" font-weight="800" text-anchor="middle">perfil activo</text>
  <rect x="28" y="94" width="246" height="54" rx="12" fill="#20263a" opacity="0.72"/>
  <rect x="28.5" y="94.5" width="245" height="53" rx="11.5" fill="none" stroke="#9ece6a" opacity="0.22"/>
  <circle cx="55" cy="121" r="15" fill="#9ece6a" opacity="0.14"/>
  <text x="55" y="126" fill="#9ece6a" font-family="Segoe UI, Ubuntu, sans-serif" font-size="14" font-weight="800" text-anchor="middle">R</text>
  <text x="78" y="117" fill="#8892b8" font-family="Segoe UI, Ubuntu, sans-serif" font-size="12" font-weight="650" text-anchor="start">Repositorios publicos</text>
  <text x="78" y="136" fill="#9ece6a" font-family="Segoe UI, Ubuntu, sans-serif" font-size="18" font-weight="850" text-anchor="start">7</text>
  <rect x="294" y="94" width="246" height="54" rx="12" fill="#20263a" opacity="0.72"/>
  <rect x="294.5" y="94.5" width="245" height="53" rx="11.5" fill="none" stroke="#ffb86c" opacity="0.22"/>
  <circle cx="321" cy="121" r="15" fill="#ffb86c" opacity="0.14"/>
  <text x="321" y="126" fill="#ffb86c" font-family="Segoe UI, Ubuntu, sans-serif" font-size="14" font-weight="800" text-anchor="middle">S</text>
  <text x="344" y="117" fill="#8892b8" font-family="Segoe UI, Ubuntu, sans-serif" font-size="12" font-weight="650" text-anchor="start">Estrellas recibidas</text>
  <text x="344" y="136" fill="#ffb86c" font-family="Segoe UI, Ubuntu, sans-serif" font-size="18" font-weight="850" text-anchor="start">0</text>
  <rect x="28" y="160" width="246" height="54" rx="12" fill="#20263a" opacity="0.72"/>
  <rect x="28.5" y="160.5" width="245" height="53" rx="11.5" fill="none" stroke="#f7768e" opacity="0.22"/>
  <circle cx="55" cy="187" r="15" fill="#f7768e" opacity="0.14"/>
  <text x="55" y="192" fill="#f7768e" font-family="Segoe UI, Ubuntu, sans-serif" font-size="14" font-weight="800" text-anchor="middle">F</text>
  <text x="78" y="183" fill="#8892b8" font-family="Segoe UI, Ubuntu, sans-serif" font-size="12" font-weight="650" text-anchor="start">Forks</text>
  <text x="78" y="202" fill="#f7768e" font-family="Segoe UI, Ubuntu, sans-serif" font-size="18" font-weight="850" text-anchor="start">0</text>
  <rect x="294" y="160" width="246" height="54" rx="12" fill="#20263a" opacity="0.72"/>
  <rect x="294.5" y="160.5" width="245" height="53" rx="11.5" fill="none" stroke="#7dcfff" opacity="0.22"/>
  <circle cx="321" cy="187" r="15" fill="#7dcfff" opacity="0.14"/>
  <text x="321" y="192" fill="#7dcfff" font-family="Segoe UI, Ubuntu, sans-serif" font-size="14" font-weight="800" text-anchor="middle">U</text>
  <text x="344" y="183" fill="#8892b8" font-family="Segoe UI, Ubuntu, sans-serif" font-size="12" font-weight="650" text-anchor="start">Seguidores</text>
  <text x="344" y="202" fill="#7dcfff" font-family="Segoe UI, Ubuntu, sans-serif" font-size="18" font-weight="850" text-anchor="start">0</text>
  <text x="404" y="222" fill="#8892b8" font-family="Segoe UI, Ubuntu, sans-serif" font-size="11" font-weight="400" text-anchor="start">actualizado 3 jun 2026</text>
</svg>
