<svg xmlns="http://www.w3.org/2000/svg" width="640" height="285" viewBox="0 0 640 285" role="img" aria-label="Estadisticas de GitHub de DaosPath">
  <defs>
    <linearGradient id="card-bg" x1="0" y1="0" x2="1" y2="1">
      <stop offset="0%" stop-color="#171b2e"/>
      <stop offset="100%" stop-color="#111827"/>
    </linearGradient>
    <filter id="soft-shadow" x="-10%" y="-10%" width="120%" height="120%">
      <feDropShadow dx="0" dy="8" stdDeviation="10" flood-color="#000000" flood-opacity="0.22"/>
    </filter>
  </defs>
  <rect x="1" y="1" width="638" height="283" rx="14" fill="url(#card-bg)" filter="url(#soft-shadow)"/>
  <rect x="1.5" y="1.5" width="637" height="282" rx="13.5" fill="none" stroke="#36405f"/>
  <circle cx="606" cy="30" r="44" fill="#8fb3ff" opacity="0.06"/>
  <circle cx="562" cy="277" r="52" fill="#9ece6a" opacity="0.045"/>
  <rect x="28" y="26" width="584" height="66" rx="18" fill="#20263a" opacity="0.38"/>
  <text x="48" y="56" fill="#8fb3ff" font-family="Segoe UI, Ubuntu, sans-serif" font-size="26" font-weight="900" text-anchor="start">GitHub de DaosPath</text>
  <text x="48" y="78" fill="#8892b8" font-family="Segoe UI, Ubuntu, sans-serif" font-size="12" font-weight="400" text-anchor="start">Pulso publico del perfil</text>
  <rect x="476" y="42" width="118" height="30" rx="15" fill="#8fb3ff" opacity="0.13"/>
  <circle cx="494" cy="57" r="5" fill="#9ece6a"/>
  <text x="548" y="62" fill="#8fb3ff" font-family="Segoe UI, Ubuntu, sans-serif" font-size="12" font-weight="850" text-anchor="middle">perfil activo</text>
  <rect x="30" y="116" width="286" height="62" rx="15" fill="#20263a" opacity="0.76"/>
  <rect x="30.5" y="116.5" width="285" height="61" rx="14.5" fill="none" stroke="#9ece6a" opacity="0.24"/>
  <rect x="42" y="130" width="34" height="34" rx="12" fill="#9ece6a" opacity="0.16"/>
  <text x="59" y="153" fill="#9ece6a" font-family="Segoe UI, Ubuntu, sans-serif" font-size="14" font-weight="850" text-anchor="middle">R</text>
  <text x="88" y="141" fill="#8892b8" font-family="Segoe UI, Ubuntu, sans-serif" font-size="12" font-weight="700" text-anchor="start">Repositorios publicos</text>
  <text x="88" y="161" fill="#8892b8" font-family="Segoe UI, Ubuntu, sans-serif" font-size="11" font-weight="400" text-anchor="start">GitHub</text>
  <text x="292" y="159" fill="#9ece6a" font-family="Segoe UI, Ubuntu, sans-serif" font-size="25" font-weight="900" text-anchor="end">7</text>
  <rect x="324" y="116" width="286" height="62" rx="15" fill="#20263a" opacity="0.76"/>
  <rect x="324.5" y="116.5" width="285" height="61" rx="14.5" fill="none" stroke="#ffb86c" opacity="0.24"/>
  <rect x="336" y="130" width="34" height="34" rx="12" fill="#ffb86c" opacity="0.16"/>
  <text x="353" y="153" fill="#ffb86c" font-family="Segoe UI, Ubuntu, sans-serif" font-size="14" font-weight="850" text-anchor="middle">S</text>
  <text x="382" y="141" fill="#8892b8" font-family="Segoe UI, Ubuntu, sans-serif" font-size="12" font-weight="700" text-anchor="start">Estrellas recibidas</text>
  <text x="382" y="161" fill="#8892b8" font-family="Segoe UI, Ubuntu, sans-serif" font-size="11" font-weight="400" text-anchor="start">GitHub</text>
  <text x="586" y="159" fill="#ffb86c" font-family="Segoe UI, Ubuntu, sans-serif" font-size="25" font-weight="900" text-anchor="end">0</text>
  <rect x="30" y="190" width="286" height="62" rx="15" fill="#20263a" opacity="0.76"/>
  <rect x="30.5" y="190.5" width="285" height="61" rx="14.5" fill="none" stroke="#f7768e" opacity="0.24"/>
  <rect x="42" y="204" width="34" height="34" rx="12" fill="#f7768e" opacity="0.16"/>
  <text x="59" y="227" fill="#f7768e" font-family="Segoe UI, Ubuntu, sans-serif" font-size="14" font-weight="850" text-anchor="middle">F</text>
  <text x="88" y="215" fill="#8892b8" font-family="Segoe UI, Ubuntu, sans-serif" font-size="12" font-weight="700" text-anchor="start">Forks</text>
  <text x="88" y="235" fill="#8892b8" font-family="Segoe UI, Ubuntu, sans-serif" font-size="11" font-weight="400" text-anchor="start">GitHub</text>
  <text x="292" y="233" fill="#f7768e" font-family="Segoe UI, Ubuntu, sans-serif" font-size="25" font-weight="900" text-anchor="end">0</text>
  <rect x="324" y="190" width="286" height="62" rx="15" fill="#20263a" opacity="0.76"/>
  <rect x="324.5" y="190.5" width="285" height="61" rx="14.5" fill="none" stroke="#7dcfff" opacity="0.24"/>
  <rect x="336" y="204" width="34" height="34" rx="12" fill="#7dcfff" opacity="0.16"/>
  <text x="353" y="227" fill="#7dcfff" font-family="Segoe UI, Ubuntu, sans-serif" font-size="14" font-weight="850" text-anchor="middle">U</text>
  <text x="382" y="215" fill="#8892b8" font-family="Segoe UI, Ubuntu, sans-serif" font-size="12" font-weight="700" text-anchor="start">Seguidores</text>
  <text x="382" y="235" fill="#8892b8" font-family="Segoe UI, Ubuntu, sans-serif" font-size="11" font-weight="400" text-anchor="start">GitHub</text>
  <text x="586" y="233" fill="#7dcfff" font-family="Segoe UI, Ubuntu, sans-serif" font-size="25" font-weight="900" text-anchor="end">0</text>
  <line x1="30" y1="268" x2="610" y2="268" stroke="#36405f" opacity="0.5"/>
  <text x="452" y="278" fill="#8892b8" font-family="Segoe UI, Ubuntu, sans-serif" font-size="11" font-weight="400" text-anchor="start">actualizado 3 jun 2026</text>
</svg>
