<svg xmlns="http://www.w3.org/2000/svg" width="360" height="220" viewBox="0 0 360 220" role="img" aria-label="Lenguajes más usados por DaosPath">
  <rect width="360" height="220" rx="8" fill="#1a1b27"/>
  <rect x="0.5" y="0.5" width="359" height="219" rx="7.5" fill="none" stroke="#2f3447"/>
  <text x="24" y="38" fill="#70a5fd" font-family="Segoe UI, Ubuntu, sans-serif" font-size="20" font-weight="700">Lenguajes más usados</text>
  <text x="24" y="64" fill="#a9b1d6" font-family="Segoe UI, Ubuntu, sans-serif" font-size="13" font-weight="400">TypeScript 37.2%</text>
  <rect x="24" y="70" width="260" height="8" rx="4" fill="#24283b"/>
  <rect x="24" y="70" width="97" height="8" rx="4" fill="#70a5fd"/>
  <text x="24" y="88" fill="#a9b1d6" font-family="Segoe UI, Ubuntu, sans-serif" font-size="13" font-weight="400">Java 23.4%</text>
  <rect x="24" y="94" width="260" height="8" rx="4" fill="#24283b"/>
  <rect x="24" y="94" width="61" height="8" rx="4" fill="#c3e88d"/>
  <text x="24" y="112" fill="#a9b1d6" font-family="Segoe UI, Ubuntu, sans-serif" font-size="13" font-weight="400">Python 17.1%</text>
  <rect x="24" y="118" width="260" height="8" rx="4" fill="#24283b"/>
  <rect x="24" y="118" width="45" height="8" rx="4" fill="#f7768e"/>
  <text x="24" y="136" fill="#a9b1d6" font-family="Segoe UI, Ubuntu, sans-serif" font-size="13" font-weight="400">CSS 7.9%</text>
  <rect x="24" y="142" width="260" height="8" rx="4" fill="#24283b"/>
  <rect x="24" y="142" width="21" height="8" rx="4" fill="#ff9e64"/>
  <text x="24" y="160" fill="#a9b1d6" font-family="Segoe UI, Ubuntu, sans-serif" font-size="13" font-weight="400">Rust 7.4%</text>
  <rect x="24" y="166" width="260" height="8" rx="4" fill="#24283b"/>
  <rect x="24" y="166" width="19" height="8" rx="4" fill="#bb9af7"/>
  <text x="24" y="184" fill="#a9b1d6" font-family="Segoe UI, Ubuntu, sans-serif" font-size="13" font-weight="400">TeX 6.9%</text>
  <rect x="24" y="190" width="260" height="8" rx="4" fill="#24283b"/>
  <rect x="24" y="190" width="18" height="8" rx="4" fill="#7dcfff"/>
</svg>
