<svg xmlns="http://www.w3.org/2000/svg" width="380" height="220" viewBox="0 0 380 220" role="img" aria-label="Lenguajes mas usados por DaosPath">
  <defs>
    <linearGradient id="card-bg" x1="0" y1="0" x2="1" y2="1">
      <stop offset="0%" stop-color="#171b2e"/>
      <stop offset="100%" stop-color="#111827"/>
    </linearGradient>
    <filter id="soft-shadow" x="-10%" y="-10%" width="120%" height="120%">
      <feDropShadow dx="0" dy="8" stdDeviation="10" flood-color="#000000" flood-opacity="0.22"/>
    </filter>
  </defs>
  <rect x="1" y="1" width="378" height="218" rx="14" fill="url(#card-bg)" filter="url(#soft-shadow)"/>
  <rect x="1.5" y="1.5" width="377" height="217" rx="13.5" fill="none" stroke="#36405f"/>
  <circle cx="346" cy="30" r="44" fill="#8fb3ff" opacity="0.06"/>
  <circle cx="302" cy="212" r="52" fill="#9ece6a" opacity="0.045"/>
  <text x="26" y="42" fill="#8fb3ff" font-family="Segoe UI, Ubuntu, sans-serif" font-size="21" font-weight="800" text-anchor="start">Lenguajes mas usados</text>
  <text x="26" y="65" fill="#8892b8" font-family="Segoe UI, Ubuntu, sans-serif" font-size="12" font-weight="400" text-anchor="start">Por bytes en repos publicos</text>
  <circle cx="28" cy="68" r="4" fill="#8fb3ff"/>
  <text x="40" y="72" fill="#d8def8" font-family="Segoe UI, Ubuntu, sans-serif" font-size="13" font-weight="650" text-anchor="start">TypeScript</text>
  <text x="340" y="72" fill="#8892b8" font-family="Segoe UI, Ubuntu, sans-serif" font-size="12" font-weight="400" text-anchor="end">37.2%</text>
  <rect x="28" y="80" width="312" height="9" rx="4.5" fill="#20263a"/>
  <rect x="28" y="80" width="116" height="9" rx="4.5" fill="#8fb3ff"/>
  <circle cx="28" cy="93" r="4" fill="#9ece6a"/>
  <text x="40" y="97" fill="#d8def8" font-family="Segoe UI, Ubuntu, sans-serif" font-size="13" font-weight="650" text-anchor="start">Java</text>
  <text x="340" y="97" fill="#8892b8" font-family="Segoe UI, Ubuntu, sans-serif" font-size="12" font-weight="400" text-anchor="end">23.4%</text>
  <rect x="28" y="105" width="312" height="9" rx="4.5" fill="#20263a"/>
  <rect x="28" y="105" width="73" height="9" rx="4.5" fill="#9ece6a"/>
  <circle cx="28" cy="118" r="4" fill="#f7768e"/>
  <text x="40" y="122" fill="#d8def8" font-family="Segoe UI, Ubuntu, sans-serif" font-size="13" font-weight="650" text-anchor="start">Python</text>
  <text x="340" y="122" fill="#8892b8" font-family="Segoe UI, Ubuntu, sans-serif" font-size="12" font-weight="400" text-anchor="end">17.1%</text>
  <rect x="28" y="130" width="312" height="9" rx="4.5" fill="#20263a"/>
  <rect x="28" y="130" width="53" height="9" rx="4.5" fill="#f7768e"/>
  <circle cx="28" cy="143" r="4" fill="#ffb86c"/>
  <text x="40" y="147" fill="#d8def8" font-family="Segoe UI, Ubuntu, sans-serif" font-size="13" font-weight="650" text-anchor="start">CSS</text>
  <text x="340" y="147" fill="#8892b8" font-family="Segoe UI, Ubuntu, sans-serif" font-size="12" font-weight="400" text-anchor="end">7.9%</text>
  <rect x="28" y="155" width="312" height="9" rx="4.5" fill="#20263a"/>
  <rect x="28" y="155" width="25" height="9" rx="4.5" fill="#ffb86c"/>
  <circle cx="28" cy="168" r="4" fill="#bb9af7"/>
  <text x="40" y="172" fill="#d8def8" font-family="Segoe UI, Ubuntu, sans-serif" font-size="13" font-weight="650" text-anchor="start">Rust</text>
  <text x="340" y="172" fill="#8892b8" font-family="Segoe UI, Ubuntu, sans-serif" font-size="12" font-weight="400" text-anchor="end">7.4%</text>
  <rect x="28" y="180" width="312" height="9" rx="4.5" fill="#20263a"/>
  <rect x="28" y="180" width="23" height="9" rx="4.5" fill="#bb9af7"/>
  <circle cx="28" cy="193" r="4" fill="#7dcfff"/>
  <text x="40" y="197" fill="#d8def8" font-family="Segoe UI, Ubuntu, sans-serif" font-size="13" font-weight="650" text-anchor="start">TeX</text>
  <text x="340" y="197" fill="#8892b8" font-family="Segoe UI, Ubuntu, sans-serif" font-size="12" font-weight="400" text-anchor="end">6.9%</text>
  <rect x="28" y="205" width="312" height="9" rx="4.5" fill="#20263a"/>
  <rect x="28" y="205" width="21" height="9" rx="4.5" fill="#7dcfff"/>
</svg>
